<svg width="32" height="32" viewBox="0 0 32 32" fill="none" xmlns="http://www.w3.org/2000/svg">
<path d="M16 32C24.8366 32 32 24.8366 32 16C32 7.16344 24.8366 0 16 0C7.16344 0 0 7.16344 0 16C0 24.8366 7.16344 32 16 32Z" fill="white"/>
<path d="M5.80155 16.0496C5.75366 17.6817 6.04102 19.3137 6.56907 20.8972C7.04923 22.2416 7.96166 23.3932 9.16267 24.2086C10.5553 25.0725 12.1529 25.4086 13.8194 25.4086H24.0464V20.595H13.8034C11.3019 20.595 10.0997 18.8951 10.0997 16.0593V16.0618C10.0997 13.226 11.3019 11.5321 13.8034 11.5321H24.0464V6.71973H13.8194C12.2033 6.71973 10.5553 7.05584 9.16267 7.91979C7.96166 8.7352 7.05046 9.88672 6.56907 11.2312C6.04102 12.8147 5.75366 14.4467 5.80155 16.0787" fill="url(#paint0_linear_698_16265)"/>
<path fill-rule="evenodd" clip-rule="evenodd" d="M12.0137 15.0645L16.8153 15.9818C16.8153 15.9818 13.2933 19.6402 12.0137 15.0645Z" fill="#414141"/>
<path fill-rule="evenodd" clip-rule="evenodd" d="M23.2734 15.0815L18.6191 16.0474C18.6191 16.0474 22.6508 19.667 23.2734 15.0815Z" fill="#414141"/>
<defs>
<linearGradient id="paint0_linear_698_16265" x1="5.79664" y1="16.0642" x2="24.0464" y2="16.0642" gradientUnits="userSpaceOnUse">
<stop stop-color="#F16222"/>
<stop offset="0.26" stop-color="#F37421"/>
<stop offset="0.71" stop-color="#F68D1E"/>
<stop offset="1" stop-color="#F7981D"/>
</linearGradient>
</defs>
</svg>
